<svg xmlns="http://www.w3.org/2000/svg" width="96" height="96" viewBox="0 0 96 96">
  <g id="_1" data-name="1" transform="translate(-531 -1452)">
    <rect id="Rectangle_205" data-name="Rectangle 205" width="96" height="96" transform="translate(531 1452)" fill="#f0f4f7"/>
    <g id="Group_439" data-name="Group 439" transform="translate(555 1476)">
      <path id="Path_347" data-name="Path 347" d="M0,0H48V48H0Z" fill="none"/>
      <path id="Path_348" data-name="Path 348" d="M12,5H8A4,4,0,0,0,4,9V33a4,4,0,0,0,4,4H19.394" transform="translate(4 5)" fill="none" stroke="#f71735" stroke-linecap="round" stroke-linejoin="round" stroke-width="2"/>
      <path id="Path_349" data-name="Path 349" d="M18,14v8h8" transform="translate(18 14)" fill="none" stroke="#f71735" stroke-linecap="round" stroke-linejoin="round" stroke-width="2"/>
      <path id="Path_350" data-name="Path 350" d="M22,17V9a4,4,0,0,0-4-4H14" transform="translate(14 5)" fill="none" stroke="#f71735" stroke-linecap="round" stroke-linejoin="round" stroke-width="2"/>
      <path id="Path_351" data-name="Path 351" d="M8,3,8,7a4,4,0,0,1,4-4h4a4,4,0,0,1,4,4h0a4,4,0,0,1-4,4H12A4,4,0,0,1,8,7Z" transform="translate(8 3)" fill="none" stroke="#f71735" stroke-linecap="round" stroke-linejoin="round" stroke-width="2"/>
      <path id="Path_352" data-name="Path 352" d="M22,22m-8,0a8,8,0,1,0,8-8,8,8,0,0,0-8,8" transform="translate(14 14)" fill="none" stroke="#f71735" stroke-linecap="round" stroke-linejoin="round" stroke-width="2"/>
      <path id="Path_353" data-name="Path 353" d="M8,11h8" transform="translate(8 11)" fill="none" stroke="#f71735" stroke-linecap="round" stroke-linejoin="round" stroke-width="2"/>
      <path id="Path_354" data-name="Path 354" d="M8,15h6" transform="translate(8 15)" fill="none" stroke="#f71735" stroke-linecap="round" stroke-linejoin="round" stroke-width="2"/>
    </g>
  </g>
</svg>
