<svg xmlns="http://www.w3.org/2000/svg" width="96" height="96" viewBox="0 0 96 96">
  <g id="_3" data-name="3" transform="translate(-531 -2123)">
    <rect id="Rectangle_190" data-name="Rectangle 190" width="96" height="96" transform="translate(531 2123)" fill="#f0f4f7"/>
    <g id="Group_437" data-name="Group 437" transform="translate(555 2147)">
      <path id="Path_360" data-name="Path 360" d="M0,0H48V48H0Z" fill="none"/>
      <path id="Path_361" data-name="Path 361" d="M6,6,2,6A4,4,0,1,0,6,2,4,4,0,0,0,2,6" transform="translate(2 2)" fill="none" stroke="#f71735" stroke-linecap="round" stroke-linejoin="round" stroke-width="2"/>
      <path id="Path_362" data-name="Path 362" d="M22,12m-4,0a4,4,0,1,0,4-4,4,4,0,0,0-4,4" transform="translate(18 8)" fill="none" stroke="#f71735" stroke-linecap="round" stroke-linejoin="round" stroke-width="2"/>
      <path id="Path_363" data-name="Path 363" d="M6,14,2,14a4,4,0,1,0,4-4,4,4,0,0,0-4,4" transform="translate(2 10)" fill="none" stroke="#f71735" stroke-linecap="round" stroke-linejoin="round" stroke-width="2"/>
      <path id="Path_364" data-name="Path 364" d="M6,22,2,22a4,4,0,1,0,4-4,4,4,0,0,0-4,4" transform="translate(2 18)" fill="none" stroke="#f71735" stroke-linecap="round" stroke-linejoin="round" stroke-width="2"/>
      <path id="Path_365" data-name="Path 365" d="M6,12h6a2,2,0,0,1,2,2V26a2,2,0,0,1-2,2H6" transform="translate(6 12)" fill="none" stroke="#f71735" stroke-linecap="round" stroke-linejoin="round" stroke-width="2"/>
      <path id="Path_366" data-name="Path 366" d="M6,4H20a2,2,0,0,1,2,2V26a2,2,0,0,1-2,2H16" transform="translate(6 4)" fill="none" stroke="#f71735" stroke-linecap="round" stroke-linejoin="round" stroke-width="2"/>
      <path id="Path_367" data-name="Path 367" d="M14,10h8" transform="translate(14 10)" fill="none" stroke="#f71735" stroke-linecap="round" stroke-linejoin="round" stroke-width="2"/>
    </g>
  </g>
</svg>
