<svg xmlns="http://www.w3.org/2000/svg" width="1246.369" height="256.961" viewBox="0 0 1246.369 256.961">
  <g id="i11_Labs_logo" data-name="i11 Labs logo" transform="translate(-406.487 -282.795)">
    <g id="Group_407" data-name="Group 407" transform="translate(406.487 282.795)">
      <path id="Path_320" data-name="Path 320" d="M406.487,326.252V282.795H447.3v43.458Zm0,209.728V348.174H447.3V535.98Z" transform="translate(-406.487 -282.795)"/>
      <path id="Path_321" data-name="Path 321" d="M475.385,535.98V343.262H413.415v-29.1H425.5c27.96,0,43.833-7.185,54.794-31.37h35.9V535.98Z" transform="translate(-349.924 -282.795)"/>
      <path id="Path_322" data-name="Path 322" d="M489.085,535.98V343.262H427.106v-29.1h12.088c27.97,0,43.843-7.185,54.8-31.37h35.888V535.98Z" transform="translate(-238.145 -282.795)"/>
      <path id="Path_323" data-name="Path 323" d="M449.5,535.98V282.795h40.827V499.322H646.375V535.98Z" transform="translate(-55.344 -282.795)"/>
      <path id="Path_324" data-name="Path 324" d="M472.962,435.753c0-29.1,23.434-44.209,60.467-48.37l85.394-9.073V367.359c0-30.985-13.591-41.946-49.5-41.946-34.77,0-51.77,11.336-51.77,38.921v1.512H477.123v-1.512c0-42.7,35.512-74.818,95.218-74.818s86.549,32.5,86.549,77.467V481.1H621.471V434.241h-2.648c-9.815,31.746-39.673,50.634-82.379,50.634C497.522,484.875,472.962,466.747,472.962,435.753ZM547.414,455.4c42.688,0,71.409-15.864,71.409-52.906l-73.691,8.312c-21.161,2.648-31.352,7.57-31.352,22.3C513.78,448.217,523.971,455.4,547.414,455.4Z" transform="translate(136.242 -227.914)"/>
      <path id="Path_325" data-name="Path 325" d="M497.21,535.98V282.795h40.809v116.4h2.273c7.542-31.746,32.5-54.794,77.467-54.794,57.818,0,89.563,39.3,89.563,97.867,0,57.818-32.13,97.491-91.846,97.491-42.688,0-70.282-20.409-78.218-57.818H534.61V535.98Zm105.437-33.633c41.166,0,63.849-15.121,63.849-60.082,0-45.346-23.049-60.833-63.115-60.833-42.322,0-65.361,19.639-65.361,59.706v3.015C538.019,483.459,562.213,502.347,602.647,502.347Z" transform="translate(334.212 -282.795)"/>
      <path id="Path_326" data-name="Path 326" d="M524.253,417.617v-1.136h40.818V419.5c0,24.561,14.745,32.5,54.033,32.5,36.658,0,47.609-7.561,47.609-24.185,0-15.488-9.063-20.4-35.879-24.185l-51.4-6.8c-35.521-4.536-57.067-19.648-57.067-51.009,0-32.882,29.858-56.306,87.676-56.306,57.433,0,92.2,23.049,92.2,67.634v1.136H661.811v-2.264c0-22.3-11.336-34.009-52.9-34.009-34.385,0-46.482,7.561-46.482,25.321,0,14.737,7.542,20.024,35.9,23.8l43.449,6.049c44.6,5.663,65,20.776,65,51.77,0,35.146-34.779,55.921-87.676,55.921C558.638,484.875,524.253,461.075,524.253,417.617Z" transform="translate(539.588 -227.914)"/>
    </g>
  </g>
</svg>
