<svg id="read_time" data-name="read time" xmlns="http://www.w3.org/2000/svg" width="18" height="18" viewBox="0 0 18 18">
  <path id="Path_206" data-name="Path 206" d="M0,0H18V18H0Z" fill="none"/>
  <path id="Path_207" data-name="Path 207" d="M13.25,3.005A7.5,7.5,0,1,1,2,9.743L2,9.5l0-.243A7.5,7.5,0,0,1,13.25,3.005ZM9.5,5a.75.75,0,0,0-.745.662L8.75,5.75V9.5l.007.1a.75.75,0,0,0,.148.358l.065.075,2.25,2.25.07.061a.75.75,0,0,0,.92,0l.07-.062.062-.07a.75.75,0,0,0,0-.92l-.062-.07L10.25,9.189V5.75l-.005-.088A.75.75,0,0,0,9.5,5Z" transform="translate(-0.5 -0.5)" fill="#c1d1e0"/>
</svg>
