<svg xmlns="http://www.w3.org/2000/svg" width="96" height="96" viewBox="0 0 96 96">
  <g id="_1" data-name="1" transform="translate(-531 -1452)">
    <rect id="Rectangle_205" data-name="Rectangle 205" width="96" height="96" transform="translate(531 1452)" fill="#fff"/>
    <g id="Group_444" data-name="Group 444" transform="translate(555 1476)">
      <path id="Path_392" data-name="Path 392" d="M0,0H48V48H0Z" fill="none"/>
      <path id="Path_393" data-name="Path 393" d="M3,4,3,6A2,2,0,0,1,5,4H37a2,2,0,0,1,2,2V26a2,2,0,0,1-2,2H5a2,2,0,0,1-2-2Z" transform="translate(3 4)" fill="none" stroke="#f71735" stroke-linecap="round" stroke-linejoin="round" stroke-width="2"/>
      <path id="Path_394" data-name="Path 394" d="M7,20H27" transform="translate(7 20)" fill="none" stroke="#f71735" stroke-linecap="round" stroke-linejoin="round" stroke-width="2"/>
      <path id="Path_395" data-name="Path 395" d="M9,16v8" transform="translate(9 16)" fill="none" stroke="#f71735" stroke-linecap="round" stroke-linejoin="round" stroke-width="2"/>
      <path id="Path_396" data-name="Path 396" d="M15,16v8" transform="translate(15 16)" fill="none" stroke="#f71735" stroke-linecap="round" stroke-linejoin="round" stroke-width="2"/>
      <path id="Path_397" data-name="Path 397" d="M9,16V8" transform="translate(9 8)" fill="none" stroke="#f71735" stroke-linecap="round" stroke-linejoin="round" stroke-width="2"/>
      <path id="Path_398" data-name="Path 398" d="M12,13V11" transform="translate(12 11)" fill="none" stroke="#f71735" stroke-linecap="round" stroke-linejoin="round" stroke-width="2"/>
      <path id="Path_399" data-name="Path 399" d="M15,14V10" transform="translate(15 10)" fill="none" stroke="#f71735" stroke-linecap="round" stroke-linejoin="round" stroke-width="2"/>
      <path id="Path_400" data-name="Path 400" d="M12,13V11" transform="translate(12 11)" fill="none" stroke="#f71735" stroke-linecap="round" stroke-linejoin="round" stroke-width="2"/>
    </g>
  </g>
</svg>
