<svg xmlns="http://www.w3.org/2000/svg" width="96" height="96" viewBox="0 0 96 96">
  <g id="_4" data-name="4" transform="translate(-531 -1452)">
    <rect id="Rectangle_205" data-name="Rectangle 205" width="96" height="96" transform="translate(531 1452)" fill="#fff"/>
    <g id="Group_446" data-name="Group 446" transform="translate(555 1476)">
      <path id="Path_409" data-name="Path 409" d="M0,0H48V48H0Z" fill="none"/>
      <path id="Path_410" data-name="Path 410" d="M7,20,3,20a4,4,0,1,0,4-4,4,4,0,0,0-4,4" transform="translate(3 16)" fill="none" stroke="#f71735" stroke-linecap="round" stroke-linejoin="round" stroke-width="2"/>
      <path id="Path_411" data-name="Path 411" d="M21,8,17,8a4,4,0,1,0,4-4,4,4,0,0,0-4,4" transform="translate(17 4)" fill="none" stroke="#f71735" stroke-linecap="round" stroke-linejoin="round" stroke-width="2"/>
      <path id="Path_412" data-name="Path 412" d="M27,8V18A10,10,0,0,1,17,28H11l6-6m0,12-6-6" transform="translate(11 8)" fill="none" stroke="#f71735" stroke-linecap="round" stroke-linejoin="round" stroke-width="2"/>
      <path id="Path_413" data-name="Path 413" d="M5,29V19A10,10,0,0,1,15,9h6L15,3m0,12,6-6" transform="translate(5 3)" fill="none" stroke="#f71735" stroke-linecap="round" stroke-linejoin="round" stroke-width="2"/>
    </g>
  </g>
</svg>
